<svg width="241" height="30" viewBox="0 0 241 30" fill="none" xmlns="http://www.w3.org/2000/svg">
<rect x="0.5" y="0.5" width="240" height="29" rx="14.5" stroke="black"/>
<path d="M60.256 16.788H58.096V21H56.818V11.532H58.096V15.69H60.274L63.604 11.532H64.99L61.264 16.122L65.26 21H63.748L60.256 16.788ZM74.7781 11.532L70.0441 22.134C69.6601 23.022 69.2161 23.652 68.7121 24.024C68.2081 24.396 67.6021 24.582 66.8941 24.582C66.4381 24.582 66.0121 24.51 65.6161 24.366C65.2201 24.222 64.8781 24.006 64.5901 23.718L65.1841 22.764C65.6641 23.244 66.2401 23.484 66.9121 23.484C67.3441 23.484 67.7101 23.364 68.0101 23.124C68.3221 22.884 68.6101 22.476 68.8741 21.9L69.2881 20.982L65.0581 11.532H66.3901L69.9541 19.578L73.5181 11.532H74.7781ZM85.2652 11.532V21H83.9872V12.666H78.0472V21H76.7692V11.532H85.2652ZM88.8981 11.532H90.1761V19.056L96.4941 11.532H97.6281V21H96.3501V13.476L90.0501 21H88.8981V11.532ZM107.951 12.666H104.369V21H103.091V12.666H99.5087V11.532H107.951V12.666ZM113.866 14.88C115.054 14.892 115.954 15.156 116.566 15.672C117.19 16.188 117.502 16.932 117.502 17.904C117.502 18.912 117.166 19.686 116.494 20.226C115.834 20.766 114.874 21.03 113.614 21.018L109.798 21V11.532H111.076V14.844L113.866 14.88ZM113.542 20.046C114.418 20.058 115.078 19.884 115.522 19.524C115.978 19.152 116.206 18.612 116.206 17.904C116.206 17.208 115.984 16.692 115.54 16.356C115.096 16.02 114.43 15.846 113.542 15.834L111.076 15.798V20.01L113.542 20.046ZM129.242 11.766C130.118 11.766 130.898 11.964 131.582 12.36C132.278 12.744 132.818 13.29 133.202 13.998C133.586 14.694 133.778 15.492 133.778 16.392C133.778 17.316 133.574 18.138 133.166 18.858C132.77 19.566 132.212 20.118 131.492 20.514C130.772 20.91 129.944 21.108 129.008 21.108C127.436 21.108 126.218 20.556 125.354 19.452C124.49 18.348 124.058 16.824 124.058 14.88C124.058 12.852 124.442 11.298 125.21 10.218C125.99 9.138 127.202 8.406 128.846 8.022L133.094 7.05L133.31 8.22L129.314 9.138C127.958 9.438 126.962 9.972 126.326 10.74C125.69 11.496 125.342 12.618 125.282 14.106C125.666 13.374 126.2 12.804 126.884 12.396C127.568 11.976 128.354 11.766 129.242 11.766ZM129.044 20.046C129.704 20.046 130.292 19.896 130.808 19.596C131.336 19.284 131.744 18.852 132.032 18.3C132.332 17.748 132.482 17.124 132.482 16.428C132.482 15.732 132.338 15.12 132.05 14.592C131.762 14.064 131.354 13.656 130.826 13.368C130.31 13.068 129.716 12.918 129.044 12.918C128.372 12.918 127.772 13.068 127.244 13.368C126.728 13.656 126.32 14.064 126.02 14.592C125.732 15.12 125.588 15.732 125.588 16.428C125.588 17.124 125.732 17.748 126.02 18.3C126.32 18.852 126.734 19.284 127.262 19.596C127.79 19.896 128.384 20.046 129.044 20.046ZM136.517 11.532H137.795V19.056L144.113 11.532H145.247V21H143.969V13.476L137.669 21H136.517V11.532ZM156.65 11.532V21H155.372V12.666H150.836L150.71 15.006C150.614 16.974 150.386 18.486 150.026 19.542C149.666 20.598 149.024 21.126 148.1 21.126C147.848 21.126 147.542 21.078 147.182 20.982L147.272 19.884C147.488 19.932 147.638 19.956 147.722 19.956C148.214 19.956 148.586 19.728 148.838 19.272C149.09 18.816 149.258 18.252 149.342 17.58C149.426 16.908 149.498 16.02 149.558 14.916L149.72 11.532H156.65ZM168.563 16.662H160.643C160.715 17.646 161.093 18.444 161.777 19.056C162.461 19.656 163.325 19.956 164.369 19.956C164.957 19.956 165.497 19.854 165.989 19.65C166.481 19.434 166.907 19.122 167.267 18.714L167.987 19.542C167.567 20.046 167.039 20.43 166.403 20.694C165.779 20.958 165.089 21.09 164.333 21.09C163.361 21.09 162.497 20.886 161.741 20.478C160.997 20.058 160.415 19.482 159.995 18.75C159.575 18.018 159.365 17.19 159.365 16.266C159.365 15.342 159.563 14.514 159.959 13.782C160.367 13.05 160.919 12.48 161.615 12.072C162.323 11.664 163.115 11.46 163.991 11.46C164.867 11.46 165.653 11.664 166.349 12.072C167.045 12.48 167.591 13.05 167.987 13.782C168.383 14.502 168.581 15.33 168.581 16.266L168.563 16.662ZM163.991 12.558C163.079 12.558 162.311 12.852 161.687 13.44C161.075 14.016 160.727 14.772 160.643 15.708H167.357C167.273 14.772 166.919 14.016 166.295 13.44C165.683 12.852 164.915 12.558 163.991 12.558ZM177.648 12.666H174.066V21H172.788V12.666H169.206V11.532H177.648V12.666Z" fill="black"/>
</svg>
