<svg width="1000" height="140" viewBox="0 0 1000 140" fill="none" xmlns="http://www.w3.org/2000/svg">
<path d="M998.996 139H1V138.723V138.405V138.088V137.771V137.455V137.139V136.824V136.509V136.195V135.881V135.568V135.255V134.943V134.632V134.321V134.01V133.7V133.391V133.081V132.773V132.465V132.157V131.85V131.544V131.238V130.932V130.627V130.323V130.018V129.715V129.412V129.109V128.807V128.505V128.204V127.903V127.603V127.303V127.004V126.705V126.406V126.108V125.811V125.514V125.217V124.921V124.625V124.33V124.035V123.74V123.446V123.153V122.859V122.567V122.274V121.983V121.691V121.4V121.11V120.819V120.53V120.24V119.951V119.663V119.375V119.087V118.8V118.513V118.226V117.94V117.654V117.369V117.084V116.799V116.515V116.231V115.948V115.665V115.382V115.1V114.818V114.536V114.255V113.974V113.694V113.414V113.134V112.855V112.576V112.297V112.019V111.741V111.463V111.186V110.909V110.632V110.356V110.08V109.804V109.529V109.254V108.979V108.705V108.431V108.157V107.884V107.611V107.338V107.066V106.794V106.522V106.251V105.979V105.709V105.438V105.168V104.898V104.628V104.359V104.089V103.821V103.552V103.284V103.016V102.748V102.481V102.214V101.947V101.68V101.414V101.148V100.882V100.616V100.351V100.086V99.821V99.5564V99.2921V99.028V98.7642V98.5007V98.2373V97.9742V97.7114V97.4488V97.1864V96.9242V96.6623V96.4006V96.1391V95.8778V95.6168V95.356V95.0953V94.8349V94.5748V94.3148V94.055V93.7954V93.5361V93.2769V93.0179V92.7592V92.5006V92.2422V91.984V91.726V91.4681V91.2105V90.953V90.6957V90.4386V90.1817V89.9249V89.6683V89.4119V89.1556V88.8995V88.6436V88.3878V88.1322V87.8767V87.6214V87.3662V87.1112V86.8563V86.6016V86.347V86.0926V85.8383V85.5841V85.33V85.0761V84.8223V84.5687V84.3152V84.0618V83.8085V83.5553V83.3022V83.0493V82.7965V82.5438V82.2911V82.0386V81.7862V81.5339V81.2817V81.0296V80.7776V80.5257V80.2739V80.0221V79.7705V79.5189V79.2674V79.016V78.7647V78.5134V78.2622V78.0111V77.76V77.5091V77.2582V77.0073V76.7565V76.5058V76.2551V76.0045V75.7539V75.5034V75.2529V75.0025V74.7521V74.5017V74.2514V74.0012V73.7509V73.5007V73.2505V73.0004V72.7503V72.5002V72.2501V72V71.75V71.5V71.2499V70.9999V70.75V70.5V70.25V70V69.75V69.5V69.25V69.0001V68.7501V68.5V68.25V68V67.7499V67.4998V67.2497V66.9996V66.7495V66.4993V66.2491V65.9988V65.7486V65.4983V65.2479V64.9975V64.7471V64.4966V64.2461V63.9955V63.7449V63.4942V63.2435V62.9927V62.7418V62.4909V62.2399V61.9889V61.7378V61.4866V61.2353V60.984V60.7326V60.4811V60.2295V59.9779V59.7261V59.4743V59.2224V58.9704V58.7183V58.4661V58.2138V57.9614V57.7089V57.4562V57.2035V56.9507V56.6978V56.4447V56.1915V55.9382V55.6848V55.4313V55.1777V54.9239V54.67V54.4159V54.1617V53.9074V53.653V53.3984V53.1437V52.8888V52.6338V52.3786V52.1233V51.8678V51.6122V51.3564V51.1005V50.8444V50.5881V50.3317V50.0751V49.8183V49.5614V49.3043V49.047V48.7895V48.5319V48.274V48.016V47.7578V47.4994V47.2408V46.9821V46.7231V46.4639V46.2046V45.945V45.6852V45.4252V45.1651V44.9047V44.644V44.3832V44.1222V43.8609V43.5994V43.3377V43.0758V42.8136V42.5512V42.2886V42.0258V41.7627V41.4993V41.2358V40.972V40.7079V40.4436V40.179V39.9142V39.6492V39.3839V39.1183V38.8525V38.5864V38.32V38.0534V37.7865V37.5193V37.2519V36.9842V36.7162V36.4479V36.1794V35.9105V35.6414V35.372V35.1023V34.8323V34.5621V34.2915V34.0206V33.7494V33.4779V33.2062V32.9341V32.6617V32.389V32.1159V31.8426V31.5689V31.2949V31.0206V30.746V30.4711V30.1958V29.9202V29.6442V29.368V29.0913V28.8144V28.5371V28.2594V27.9815V27.7031V27.4244V27.1454V26.866V26.5863V26.3061V26.0257V25.7449V25.4637V25.1821V24.9002V24.6179V24.3352V24.0521V23.7687V23.4849V23.2007V22.9161V22.6311V22.3458V22.06V21.7739V21.4874V21.2004V20.9131V20.6254V20.3373V20.0487V19.7598V19.4704V19.1806V18.8905V18.5998V18.3088V18.0174V17.7255V17.4332V17.1405V16.8474V16.5538V16.2598V15.9653V15.6704V15.3751V15.0793V14.7831V14.4865V14.1894V13.8918V13.5938V13.2953V12.9964V12.697V12.3972V12.0969V11.7961V11.4948V11.1931V10.8909V10.5883V10.2851V9.9815V9.67741V9.37282V9.06775V8.7622V8.45615V8.14962V7.84259V7.53506V7.22703V6.91851V6.60948V6.29995V5.98991V5.67936V5.3683V5.05673V4.74464V4.43203V4.11891V3.80526V3.49109V3.17639V2.86116V2.54541V2.22912V1.91229V1.59493V1.27703V1H860C936.434 1 998.459 62.6927 998.996 139Z" stroke="white" stroke-width="2"/>
</svg>
