<svg width="121" height="121" viewBox="0 0 121 121" fill="none" xmlns="http://www.w3.org/2000/svg">
<path d="M41.768 51.104V61.004H54.8V63.308H41.768V74H39.104V48.8H56.384V51.104H41.768ZM77.7613 61.004C79.4173 61.364 80.6893 62.084 81.5773 63.164C82.4893 64.22 82.9453 65.588 82.9453 67.268C82.9453 69.428 82.1413 71.096 80.5333 72.272C78.9493 73.424 76.5973 74 73.4773 74H61.8853V48.8H72.7573C75.5653 48.8 77.7373 49.364 79.2733 50.492C80.8333 51.62 81.6133 53.216 81.6133 55.28C81.6133 56.672 81.2653 57.86 80.5693 58.844C79.8973 59.804 78.9613 60.524 77.7613 61.004ZM64.5493 50.996V60.14H72.5773C74.6173 60.14 76.1893 59.756 77.2933 58.988C78.3973 58.196 78.9492 57.056 78.9492 55.568C78.9492 54.08 78.3973 52.952 77.2933 52.184C76.1893 51.392 74.6173 50.996 72.5773 50.996H64.5493ZM73.4413 71.804C75.6973 71.804 77.4013 71.42 78.5533 70.652C79.7053 69.884 80.2812 68.684 80.2812 67.052C80.2812 63.908 78.0013 62.336 73.4413 62.336H64.5493V71.804H73.4413Z" fill="white"/>
<circle cx="60.5" cy="60.5" r="59.5" stroke="white" stroke-width="2"/>
</svg>
