<svg width="203" height="47" viewBox="0 0 203 47" fill="none" xmlns="http://www.w3.org/2000/svg">
<path d="M71.4542 18.87C72.8962 18.87 74.0022 19.234 74.7722 19.962C75.5422 20.676 75.9272 21.74 75.9272 23.154V30H74.4992V28.278C74.1632 28.852 73.6662 29.3 73.0082 29.622C72.3642 29.944 71.5942 30.105 70.6982 30.105C69.4662 30.105 68.4862 29.811 67.7582 29.223C67.0302 28.635 66.6662 27.858 66.6662 26.892C66.6662 25.954 67.0022 25.198 67.6742 24.624C68.3602 24.05 69.4452 23.763 70.9292 23.763H74.4362V23.091C74.4362 22.139 74.1702 21.418 73.6382 20.928C73.1062 20.424 72.3292 20.172 71.3072 20.172C70.6072 20.172 69.9352 20.291 69.2912 20.529C68.6472 20.753 68.0942 21.068 67.6322 21.474L66.9602 20.361C67.5202 19.885 68.1922 19.521 68.9762 19.269C69.7602 19.003 70.5862 18.87 71.4542 18.87ZM70.9292 28.929C71.7692 28.929 72.4902 28.74 73.0922 28.362C73.6942 27.97 74.1422 27.41 74.4362 26.682V24.876H70.9712C69.0812 24.876 68.1362 25.534 68.1362 26.85C68.1362 27.494 68.3812 28.005 68.8712 28.383C69.3612 28.747 70.0472 28.929 70.9292 28.929ZM93.2314 24.456C93.2314 26.178 92.6644 27.529 91.5304 28.509C90.3964 29.489 88.7934 30.021 86.7214 30.105V34.074H85.2724V30.126C83.2144 30.042 81.6184 29.51 80.4844 28.53C79.3644 27.536 78.8044 26.178 78.8044 24.456C78.8044 22.748 79.3644 21.411 80.4844 20.445C81.6184 19.479 83.2144 18.954 85.2724 18.87V14.418H86.7214V18.87C88.7934 18.968 90.3964 19.5 91.5304 20.466C92.6644 21.432 93.2314 22.762 93.2314 24.456ZM80.2744 24.456C80.2744 25.772 80.6944 26.801 81.5344 27.543C82.3884 28.285 83.6344 28.705 85.2724 28.803V20.193C83.6484 20.277 82.4094 20.69 81.5554 21.432C80.7014 22.16 80.2744 23.168 80.2744 24.456ZM86.7214 28.803C88.3594 28.719 89.6054 28.306 90.4594 27.564C91.3274 26.822 91.7614 25.786 91.7614 24.456C91.7614 23.154 91.3274 22.139 90.4594 21.411C89.6054 20.683 88.3594 20.277 86.7214 20.193V28.803ZM96.3847 18.954H97.8757V27.732L105.247 18.954H106.57V30H105.079V21.222L97.7287 30H96.3847V18.954ZM126.089 18.954V30H110.843V18.954H112.334V28.698H117.752V18.954H119.243V28.698H124.598V18.954H126.089ZM134.147 18.87C135.589 18.87 136.695 19.234 137.465 19.962C138.235 20.676 138.62 21.74 138.62 23.154V30H137.192V28.278C136.856 28.852 136.359 29.3 135.701 29.622C135.057 29.944 134.287 30.105 133.391 30.105C132.159 30.105 131.179 29.811 130.451 29.223C129.723 28.635 129.359 27.858 129.359 26.892C129.359 25.954 129.695 25.198 130.367 24.624C131.053 24.05 132.138 23.763 133.622 23.763H137.129V23.091C137.129 22.139 136.863 21.418 136.331 20.928C135.799 20.424 135.022 20.172 134 20.172C133.3 20.172 132.628 20.291 131.984 20.529C131.34 20.753 130.787 21.068 130.325 21.474L129.653 20.361C130.213 19.885 130.885 19.521 131.669 19.269C132.453 19.003 133.279 18.87 134.147 18.87ZM133.622 28.929C134.462 28.929 135.183 28.74 135.785 28.362C136.387 27.97 136.835 27.41 137.129 26.682V24.876H133.664C131.774 24.876 130.829 25.534 130.829 26.85C130.829 27.494 131.074 28.005 131.564 28.383C132.054 28.747 132.74 28.929 133.622 28.929Z" fill="black"/>
<rect x="1" y="1" width="201" height="44.1697" rx="22.0848" stroke="black" stroke-width="2"/>
</svg>
