<svg width="203" height="47" viewBox="0 0 203 47" fill="none" xmlns="http://www.w3.org/2000/svg">
<path d="M70.1365 17.954V29H68.7715V20.264L64.2985 27.656H63.6265L59.1535 20.243V29H57.7885V17.954H59.3005L63.9835 25.913L68.7505 17.954H70.1365ZM78.1803 17.87C79.6223 17.87 80.7283 18.234 81.4983 18.962C82.2683 19.676 82.6533 20.74 82.6533 22.154V29H81.2253V27.278C80.8893 27.852 80.3923 28.3 79.7343 28.622C79.0903 28.944 78.3203 29.105 77.4243 29.105C76.1923 29.105 75.2123 28.811 74.4843 28.223C73.7563 27.635 73.3923 26.858 73.3923 25.892C73.3923 24.954 73.7283 24.198 74.4003 23.624C75.0863 23.05 76.1713 22.763 77.6553 22.763H81.1623V22.091C81.1623 21.139 80.8963 20.418 80.3643 19.928C79.8323 19.424 79.0553 19.172 78.0333 19.172C77.3333 19.172 76.6613 19.291 76.0173 19.529C75.3733 19.753 74.8203 20.068 74.3583 20.474L73.6863 19.361C74.2463 18.885 74.9183 18.521 75.7023 18.269C76.4863 18.003 77.3123 17.87 78.1803 17.87ZM77.6553 27.929C78.4953 27.929 79.2163 27.74 79.8183 27.362C80.4203 26.97 80.8683 26.41 81.1623 25.682V23.876H77.6973C75.8073 23.876 74.8623 24.534 74.8623 25.85C74.8623 26.494 75.1073 27.005 75.5973 27.383C76.0873 27.747 76.7733 27.929 77.6553 27.929ZM94.4345 19.277H88.1135V29H86.6225V17.954H94.4345V19.277ZM100.39 17.87C101.832 17.87 102.938 18.234 103.708 18.962C104.478 19.676 104.863 20.74 104.863 22.154V29H103.435V27.278C103.099 27.852 102.602 28.3 101.944 28.622C101.3 28.944 100.53 29.105 99.6343 29.105C98.4023 29.105 97.4223 28.811 96.6943 28.223C95.9663 27.635 95.6023 26.858 95.6023 25.892C95.6023 24.954 95.9383 24.198 96.6103 23.624C97.2963 23.05 98.3813 22.763 99.8653 22.763H103.372V22.091C103.372 21.139 103.106 20.418 102.574 19.928C102.042 19.424 101.265 19.172 100.243 19.172C99.5433 19.172 98.8713 19.291 98.2273 19.529C97.5833 19.753 97.0303 20.068 96.5683 20.474L95.8963 19.361C96.4563 18.885 97.1283 18.521 97.9123 18.269C98.6963 18.003 99.5223 17.87 100.39 17.87ZM99.8653 27.929C100.705 27.929 101.426 27.74 102.028 27.362C102.63 26.97 103.078 26.41 103.372 25.682V23.876H99.9073C98.0173 23.876 97.0723 24.534 97.0723 25.85C97.0723 26.494 97.3173 27.005 97.8073 27.383C98.2973 27.747 98.9833 27.929 99.8653 27.929ZM113.983 23.246C114.767 23.428 115.369 23.743 115.789 24.191C116.223 24.639 116.44 25.185 116.44 25.829C116.44 26.473 116.216 27.047 115.768 27.551C115.334 28.055 114.739 28.447 113.983 28.727C113.227 28.993 112.394 29.126 111.484 29.126C110.686 29.126 109.902 29.014 109.132 28.79C108.362 28.552 107.69 28.209 107.116 27.761L107.62 26.648C108.124 27.026 108.712 27.32 109.384 27.53C110.056 27.74 110.735 27.845 111.421 27.845C112.443 27.845 113.276 27.656 113.92 27.278C114.578 26.886 114.907 26.361 114.907 25.703C114.907 25.115 114.641 24.66 114.109 24.338C113.577 24.002 112.849 23.834 111.925 23.834H110.035V22.742H111.841C112.667 22.742 113.332 22.588 113.836 22.28C114.34 21.958 114.592 21.531 114.592 20.999C114.592 20.411 114.305 19.949 113.731 19.613C113.171 19.277 112.436 19.109 111.526 19.109C110.336 19.109 109.16 19.41 107.998 20.012L107.578 18.857C108.894 18.171 110.259 17.828 111.673 17.828C112.513 17.828 113.269 17.954 113.941 18.206C114.627 18.444 115.159 18.787 115.537 19.235C115.929 19.683 116.125 20.201 116.125 20.789C116.125 21.349 115.929 21.846 115.537 22.28C115.159 22.714 114.641 23.036 113.983 23.246ZM119.825 17.954H121.316V26.732L128.687 17.954H130.01V29H128.519V20.222L121.169 29H119.825V17.954ZM134.283 17.954H135.774V22.847H142.725V17.954H144.216V29H142.725V24.128H135.774V29H134.283V17.954Z" fill="black"/>
<rect x="1" y="1" width="201" height="44.1697" rx="22.0848" stroke="black" stroke-width="2"/>
</svg>
