<svg width="203" height="47" viewBox="0 0 203 47" fill="none" xmlns="http://www.w3.org/2000/svg">
<path d="M79.264 29.8989C78.2 29.8989 77.241 29.6609 76.387 29.1849C75.533 28.6949 74.861 28.0229 74.371 27.1689C73.881 26.3149 73.636 25.3489 73.636 24.2709C73.636 23.1929 73.881 22.2269 74.371 21.3729C74.861 20.5189 75.533 19.8539 76.387 19.3779C77.241 18.9019 78.2 18.6639 79.264 18.6639C80.328 18.6639 81.287 18.9019 82.141 19.3779C82.995 19.8539 83.66 20.5189 84.136 21.3729C84.626 22.2269 84.871 23.1929 84.871 24.2709C84.871 25.3489 84.626 26.3149 84.136 27.1689C83.66 28.0229 82.995 28.6949 82.141 29.1849C81.287 29.6609 80.328 29.8989 79.264 29.8989ZM79.264 28.5759C80.048 28.5759 80.748 28.4009 81.364 28.0509C81.994 27.6869 82.484 27.1759 82.834 26.5179C83.184 25.8599 83.359 25.1109 83.359 24.2709C83.359 23.4309 83.184 22.6819 82.834 22.0239C82.484 21.3659 81.994 20.8619 81.364 20.5119C80.748 20.1479 80.048 19.9659 79.264 19.9659C78.48 19.9659 77.773 20.1479 77.143 20.5119C76.527 20.8619 76.037 21.3659 75.673 22.0239C75.323 22.6819 75.148 23.4309 75.148 24.2709C75.148 25.1109 75.323 25.8599 75.673 26.5179C76.037 27.1759 76.527 27.6869 77.143 28.0509C77.773 28.4009 78.48 28.5759 79.264 28.5759ZM93.5537 18.7479H95.0447V23.6409H101.996V18.7479H103.487V29.7939H101.996V24.9219H95.0447V29.7939H93.5537V18.7479ZM111.526 18.6639C112.968 18.6639 114.074 19.0279 114.844 19.7559C115.614 20.4699 115.999 21.5339 115.999 22.9479V29.7939H114.571V28.0719C114.235 28.6459 113.738 29.0939 113.08 29.4159C112.436 29.7379 111.666 29.8989 110.77 29.8989C109.538 29.8989 108.558 29.6049 107.83 29.0169C107.102 28.4289 106.738 27.6519 106.738 26.6859C106.738 25.7479 107.074 24.9919 107.746 24.4179C108.432 23.8439 109.517 23.5569 111.001 23.5569H114.508V22.8849C114.508 21.9329 114.242 21.2119 113.71 20.7219C113.178 20.2179 112.401 19.9659 111.379 19.9659C110.679 19.9659 110.007 20.0849 109.363 20.3229C108.719 20.5469 108.166 20.8619 107.704 21.2679L107.032 20.1549C107.592 19.6789 108.264 19.3149 109.048 19.0629C109.832 18.7969 110.658 18.6639 111.526 18.6639ZM111.001 28.7229C111.841 28.7229 112.562 28.5339 113.164 28.1559C113.766 27.7639 114.214 27.2039 114.508 26.4759V24.6699H111.043C109.153 24.6699 108.208 25.3279 108.208 26.6439C108.208 27.2879 108.453 27.7989 108.943 28.1769C109.433 28.5409 110.119 28.7229 111.001 28.7229ZM124.588 29.8989C123.496 29.8989 122.516 29.6609 121.648 29.1849C120.794 28.7089 120.122 28.0439 119.632 27.1899C119.142 26.3219 118.897 25.3489 118.897 24.2709C118.897 23.1929 119.142 22.2269 119.632 21.3729C120.122 20.5189 120.794 19.8539 121.648 19.3779C122.516 18.9019 123.496 18.6639 124.588 18.6639C125.54 18.6639 126.387 18.8529 127.129 19.2309C127.885 19.5949 128.48 20.1339 128.914 20.8479L127.801 21.6039C127.437 21.0579 126.975 20.6519 126.415 20.3859C125.855 20.1059 125.246 19.9659 124.588 19.9659C123.79 19.9659 123.069 20.1479 122.425 20.5119C121.795 20.8619 121.298 21.3659 120.934 22.0239C120.584 22.6819 120.409 23.4309 120.409 24.2709C120.409 25.1249 120.584 25.8809 120.934 26.5389C121.298 27.1829 121.795 27.6869 122.425 28.0509C123.069 28.4009 123.79 28.5759 124.588 28.5759C125.246 28.5759 125.855 28.4429 126.415 28.1769C126.975 27.9109 127.437 27.5049 127.801 26.9589L128.914 27.7149C128.48 28.4289 127.885 28.9749 127.129 29.3529C126.373 29.7169 125.526 29.8989 124.588 29.8989Z" fill="black"/>
<rect x="1" y="1" width="201" height="44.1697" rx="22.0848" stroke="black" stroke-width="2"/>
</svg>
