<svg width="203" height="47" viewBox="0 0 203 47" fill="none" xmlns="http://www.w3.org/2000/svg">
<path d="M70.2397 19.227C71.2617 19.227 72.1717 19.458 72.9697 19.92C73.7817 20.368 74.4117 21.005 74.8597 21.831C75.3077 22.643 75.5317 23.574 75.5317 24.624C75.5317 25.702 75.2937 26.661 74.8177 27.501C74.3557 28.327 73.7047 28.971 72.8647 29.433C72.0247 29.895 71.0587 30.126 69.9667 30.126C68.1327 30.126 66.7117 29.482 65.7037 28.194C64.6957 26.906 64.1917 25.128 64.1917 22.86C64.1917 20.494 64.6397 18.681 65.5357 17.421C66.4457 16.161 67.8597 15.307 69.7777 14.859L74.7337 13.725L74.9857 15.09L70.3237 16.161C68.7417 16.511 67.5797 17.134 66.8377 18.03C66.0957 18.912 65.6897 20.221 65.6197 21.957C66.0677 21.103 66.6907 20.438 67.4887 19.962C68.2867 19.472 69.2037 19.227 70.2397 19.227ZM70.0087 28.887C70.7787 28.887 71.4647 28.712 72.0667 28.362C72.6827 27.998 73.1587 27.494 73.4947 26.85C73.8447 26.206 74.0197 25.478 74.0197 24.666C74.0197 23.854 73.8517 23.14 73.5157 22.524C73.1797 21.908 72.7037 21.432 72.0877 21.096C71.4857 20.746 70.7927 20.571 70.0087 20.571C69.2247 20.571 68.5247 20.746 67.9087 21.096C67.3067 21.432 66.8307 21.908 66.4807 22.524C66.1447 23.14 65.9767 23.854 65.9767 24.666C65.9767 25.478 66.1447 26.206 66.4807 26.85C66.8307 27.494 67.3137 27.998 67.9297 28.362C68.5457 28.712 69.2387 28.887 70.0087 28.887ZM78.7274 18.954H80.2184V27.732L87.5894 18.954H88.9124V30H87.4214V21.222L80.0714 30H78.7274V18.954ZM102.215 18.954V30H100.724V20.277H95.4325L95.2855 23.007C95.1735 25.303 94.9075 27.067 94.4875 28.299C94.0675 29.531 93.3185 30.147 92.2405 30.147C91.9465 30.147 91.5895 30.091 91.1695 29.979L91.2745 28.698C91.5265 28.754 91.7015 28.782 91.7995 28.782C92.3735 28.782 92.8075 28.516 93.1015 27.984C93.3955 27.452 93.5915 26.794 93.6895 26.01C93.7875 25.226 93.8715 24.19 93.9415 22.902L94.1305 18.954H102.215ZM116.114 24.939H106.874C106.958 26.087 107.399 27.018 108.197 27.732C108.995 28.432 110.003 28.782 111.221 28.782C111.907 28.782 112.537 28.663 113.111 28.425C113.685 28.173 114.182 27.809 114.602 27.333L115.442 28.299C114.952 28.887 114.336 29.335 113.594 29.643C112.866 29.951 112.061 30.105 111.179 30.105C110.045 30.105 109.037 29.867 108.155 29.391C107.287 28.901 106.608 28.229 106.118 27.375C105.628 26.521 105.383 25.555 105.383 24.477C105.383 23.399 105.614 22.433 106.076 21.579C106.552 20.725 107.196 20.06 108.008 19.584C108.834 19.108 109.758 18.87 110.78 18.87C111.802 18.87 112.719 19.108 113.531 19.584C114.343 20.06 114.98 20.725 115.442 21.579C115.904 22.419 116.135 23.385 116.135 24.477L116.114 24.939ZM110.78 20.151C109.716 20.151 108.82 20.494 108.092 21.18C107.378 21.852 106.972 22.734 106.874 23.826H114.707C114.609 22.734 114.196 21.852 113.468 21.18C112.754 20.494 111.858 20.151 110.78 20.151ZM126.713 20.277H122.534V30H121.043V20.277H116.864V18.954H126.713V20.277ZM133.51 22.86C134.896 22.874 135.953 23.182 136.681 23.784C137.409 24.386 137.773 25.254 137.773 26.388C137.773 27.564 137.381 28.467 136.597 29.097C135.813 29.727 134.693 30.035 133.237 30.021L128.869 30V18.954H130.36V22.818L133.51 22.86ZM139.621 18.954H141.112V30H139.621V18.954ZM133.153 28.887C134.175 28.901 134.945 28.698 135.463 28.278C135.995 27.844 136.261 27.214 136.261 26.388C136.261 25.576 136.002 24.974 135.484 24.582C134.966 24.19 134.189 23.987 133.153 23.973L130.36 23.931V28.845L133.153 28.887Z" fill="black"/>
<rect x="1" y="1" width="201" height="44.1697" rx="22.0848" stroke="black" stroke-width="2"/>
</svg>
