<svg width="121" height="121" viewBox="0 0 121 121" fill="none" xmlns="http://www.w3.org/2000/svg">
<path d="M23.2974 49.8H25.9614V75H23.2974V49.8ZM55.2206 49.8V75H53.0246L36.8246 54.552V75H34.1606V49.8H36.3566L52.5926 70.248V49.8H55.2206ZM70.3938 75.216C68.5218 75.216 66.7218 74.916 64.9938 74.316C63.2898 73.716 61.9698 72.924 61.0338 71.94L62.0778 69.888C62.9898 70.8 64.2018 71.544 65.7138 72.12C67.2258 72.672 68.7858 72.948 70.3938 72.948C72.6498 72.948 74.3418 72.54 75.4698 71.724C76.5978 70.884 77.1618 69.804 77.1618 68.484C77.1618 67.476 76.8498 66.672 76.2258 66.072C75.6258 65.472 74.8818 65.016 73.9938 64.704C73.1058 64.368 71.8698 64.008 70.2858 63.624C68.3898 63.144 66.8778 62.688 65.7498 62.256C64.6218 61.8 63.6498 61.116 62.8338 60.204C62.0418 59.292 61.6458 58.056 61.6458 56.496C61.6458 55.224 61.9818 54.072 62.6538 53.04C63.3258 51.984 64.3578 51.144 65.7498 50.52C67.1418 49.896 68.8698 49.584 70.9338 49.584C72.3738 49.584 73.7778 49.788 75.1458 50.196C76.5378 50.58 77.7378 51.12 78.7458 51.816L77.8458 53.94C76.7898 53.244 75.6618 52.728 74.4618 52.392C73.2618 52.032 72.0858 51.852 70.9338 51.852C68.7258 51.852 67.0578 52.284 65.9298 53.148C64.8258 53.988 64.2738 55.08 64.2738 56.424C64.2738 57.432 64.5738 58.248 65.1738 58.872C65.7978 59.472 66.5658 59.94 67.4778 60.276C68.4138 60.588 69.6618 60.936 71.2218 61.32C73.0698 61.776 74.5578 62.232 75.6858 62.688C76.8378 63.12 77.8098 63.792 78.6018 64.704C79.3938 65.592 79.7898 66.804 79.7898 68.34C79.7898 69.612 79.4418 70.776 78.7458 71.832C78.0738 72.864 77.0298 73.692 75.6138 74.316C74.1978 74.916 72.4578 75.216 70.3938 75.216ZM90.1387 52.104H81.2827V49.8H101.659V52.104H92.8027V75H90.1387V52.104Z" fill="white"/>
<circle cx="60.5" cy="60.5" r="59.5" stroke="white" stroke-width="2"/>
</svg>
