<svg width="403" height="62" viewBox="0 0 403 62" fill="none" xmlns="http://www.w3.org/2000/svg">
<rect x="1" y="1" width="401" height="60" stroke="white" stroke-width="2"/>
<path d="M74.847 24.3V39H73.314V25.644H64.011V39H62.478V24.3H74.847ZM84.0071 39.105C82.9431 39.105 81.9841 38.867 81.1301 38.391C80.2761 37.901 79.6041 37.229 79.1141 36.375C78.6241 35.521 78.3791 34.555 78.3791 33.477C78.3791 32.399 78.6241 31.433 79.1141 30.579C79.6041 29.725 80.2761 29.06 81.1301 28.584C81.9841 28.108 82.9431 27.87 84.0071 27.87C85.0711 27.87 86.0301 28.108 86.8841 28.584C87.7381 29.06 88.4031 29.725 88.8791 30.579C89.3691 31.433 89.6141 32.399 89.6141 33.477C89.6141 34.555 89.3691 35.521 88.8791 36.375C88.4031 37.229 87.7381 37.901 86.8841 38.391C86.0301 38.867 85.0711 39.105 84.0071 39.105ZM84.0071 37.782C84.7911 37.782 85.4911 37.607 86.1071 37.257C86.7371 36.893 87.2271 36.382 87.5771 35.724C87.9271 35.066 88.1021 34.317 88.1021 33.477C88.1021 32.637 87.9271 31.888 87.5771 31.23C87.2271 30.572 86.7371 30.068 86.1071 29.718C85.4911 29.354 84.7911 29.172 84.0071 29.172C83.2231 29.172 82.5161 29.354 81.8861 29.718C81.2701 30.068 80.7801 30.572 80.4161 31.23C80.0661 31.888 79.8911 32.637 79.8911 33.477C79.8911 34.317 80.0661 35.066 80.4161 35.724C80.7801 36.382 81.2701 36.893 81.8861 37.257C82.5161 37.607 83.2231 37.782 84.0071 37.782ZM103.512 37.698V41.667H102.105V39H92.2142V41.667H90.8072V37.698H91.4372C92.1792 37.656 92.6832 37.11 92.9492 36.06C93.2152 35.01 93.3972 33.54 93.4952 31.65L93.6422 27.954H101.79V37.698H103.512ZM94.8602 31.734C94.7902 33.302 94.6572 34.597 94.4612 35.619C94.2652 36.627 93.9152 37.32 93.4112 37.698H100.299V29.277H94.9862L94.8602 31.734ZM116.33 27.954V39H114.839V29.277H107.909V39H106.418V27.954H116.33ZM120.568 27.954H122.059V36.732L129.43 27.954H130.753V39H129.262V30.222L121.912 39H120.568V27.954ZM139.646 39.105C138.554 39.105 137.574 38.867 136.706 38.391C135.852 37.915 135.18 37.25 134.69 36.396C134.2 35.528 133.955 34.555 133.955 33.477C133.955 32.399 134.2 31.433 134.69 30.579C135.18 29.725 135.852 29.06 136.706 28.584C137.574 28.108 138.554 27.87 139.646 27.87C140.598 27.87 141.445 28.059 142.187 28.437C142.943 28.801 143.538 29.34 143.972 30.054L142.859 30.81C142.495 30.264 142.033 29.858 141.473 29.592C140.913 29.312 140.304 29.172 139.646 29.172C138.848 29.172 138.127 29.354 137.483 29.718C136.853 30.068 136.356 30.572 135.992 31.23C135.642 31.888 135.467 32.637 135.467 33.477C135.467 34.331 135.642 35.087 135.992 35.745C136.356 36.389 136.853 36.893 137.483 37.257C138.127 37.607 138.848 37.782 139.646 37.782C140.304 37.782 140.913 37.649 141.473 37.383C142.033 37.117 142.495 36.711 142.859 36.165L143.972 36.921C143.538 37.635 142.943 38.181 142.187 38.559C141.431 38.923 140.584 39.105 139.646 39.105ZM150.87 34.086H148.35V39H146.859V27.954H148.35V32.805H150.891L154.776 27.954H156.393L152.046 33.309L156.708 39H154.944L150.87 34.086ZM162.657 27.87C164.099 27.87 165.205 28.234 165.975 28.962C166.745 29.676 167.13 30.74 167.13 32.154V39H165.702V37.278C165.366 37.852 164.869 38.3 164.211 38.622C163.567 38.944 162.797 39.105 161.901 39.105C160.669 39.105 159.689 38.811 158.961 38.223C158.233 37.635 157.869 36.858 157.869 35.892C157.869 34.954 158.205 34.198 158.877 33.624C159.563 33.05 160.648 32.763 162.132 32.763H165.639V32.091C165.639 31.139 165.373 30.418 164.841 29.928C164.309 29.424 163.532 29.172 162.51 29.172C161.81 29.172 161.138 29.291 160.494 29.529C159.85 29.753 159.297 30.068 158.835 30.474L158.163 29.361C158.723 28.885 159.395 28.521 160.179 28.269C160.963 28.003 161.789 27.87 162.657 27.87ZM162.132 37.929C162.972 37.929 163.693 37.74 164.295 37.362C164.897 36.97 165.345 36.41 165.639 35.682V33.876H162.174C160.284 33.876 159.339 34.534 159.339 35.85C159.339 36.494 159.584 37.005 160.074 37.383C160.564 37.747 161.25 37.929 162.132 37.929ZM176.596 27.954H178.087V32.847H185.038V27.954H186.529V39H185.038V34.128H178.087V39H176.596V27.954ZM194.568 27.87C196.01 27.87 197.116 28.234 197.886 28.962C198.656 29.676 199.041 30.74 199.041 32.154V39H197.613V37.278C197.277 37.852 196.78 38.3 196.122 38.622C195.478 38.944 194.708 39.105 193.812 39.105C192.58 39.105 191.6 38.811 190.872 38.223C190.144 37.635 189.78 36.858 189.78 35.892C189.78 34.954 190.116 34.198 190.788 33.624C191.474 33.05 192.559 32.763 194.043 32.763H197.55V32.091C197.55 31.139 197.284 30.418 196.752 29.928C196.22 29.424 195.443 29.172 194.421 29.172C193.721 29.172 193.049 29.291 192.405 29.529C191.761 29.753 191.208 30.068 190.746 30.474L190.074 29.361C190.634 28.885 191.306 28.521 192.09 28.269C192.874 28.003 193.7 27.87 194.568 27.87ZM194.043 37.929C194.883 37.929 195.604 37.74 196.206 37.362C196.808 36.97 197.256 36.41 197.55 35.682V33.876H194.085C192.195 33.876 191.25 34.534 191.25 35.85C191.25 36.494 191.495 37.005 191.985 37.383C192.475 37.747 193.161 37.929 194.043 37.929ZM213.063 39.105C211.999 39.105 211.04 38.867 210.186 38.391C209.332 37.901 208.66 37.229 208.17 36.375C207.68 35.521 207.435 34.555 207.435 33.477C207.435 32.399 207.68 31.433 208.17 30.579C208.66 29.725 209.332 29.06 210.186 28.584C211.04 28.108 211.999 27.87 213.063 27.87C214.127 27.87 215.086 28.108 215.94 28.584C216.794 29.06 217.459 29.725 217.935 30.579C218.425 31.433 218.67 32.399 218.67 33.477C218.67 34.555 218.425 35.521 217.935 36.375C217.459 37.229 216.794 37.901 215.94 38.391C215.086 38.867 214.127 39.105 213.063 39.105ZM213.063 37.782C213.847 37.782 214.547 37.607 215.163 37.257C215.793 36.893 216.283 36.382 216.633 35.724C216.983 35.066 217.158 34.317 217.158 33.477C217.158 32.637 216.983 31.888 216.633 31.23C216.283 30.572 215.793 30.068 215.163 29.718C214.547 29.354 213.847 29.172 213.063 29.172C212.279 29.172 211.572 29.354 210.942 29.718C210.326 30.068 209.836 30.572 209.472 31.23C209.122 31.888 208.947 32.637 208.947 33.477C208.947 34.317 209.122 35.066 209.472 35.724C209.836 36.382 210.326 36.893 210.942 37.257C211.572 37.607 212.279 37.782 213.063 37.782ZM227.211 28.227C228.233 28.227 229.143 28.458 229.941 28.92C230.753 29.368 231.383 30.005 231.831 30.831C232.279 31.643 232.503 32.574 232.503 33.624C232.503 34.702 232.265 35.661 231.789 36.501C231.327 37.327 230.676 37.971 229.836 38.433C228.996 38.895 228.03 39.126 226.938 39.126C225.104 39.126 223.683 38.482 222.675 37.194C221.667 35.906 221.163 34.128 221.163 31.86C221.163 29.494 221.611 27.681 222.507 26.421C223.417 25.161 224.831 24.307 226.749 23.859L231.705 22.725L231.957 24.09L227.295 25.161C225.713 25.511 224.551 26.134 223.809 27.03C223.067 27.912 222.661 29.221 222.591 30.957C223.039 30.103 223.662 29.438 224.46 28.962C225.258 28.472 226.175 28.227 227.211 28.227ZM226.98 37.887C227.75 37.887 228.436 37.712 229.038 37.362C229.654 36.998 230.13 36.494 230.466 35.85C230.816 35.206 230.991 34.478 230.991 33.666C230.991 32.854 230.823 32.14 230.487 31.524C230.151 30.908 229.675 30.432 229.059 30.096C228.457 29.746 227.764 29.571 226.98 29.571C226.196 29.571 225.496 29.746 224.88 30.096C224.278 30.432 223.802 30.908 223.452 31.524C223.116 32.14 222.948 32.854 222.948 33.666C222.948 34.478 223.116 35.206 223.452 35.85C223.802 36.494 224.285 36.998 224.901 37.362C225.517 37.712 226.21 37.887 226.98 37.887ZM235.699 27.954H237.19V32.847H244.141V27.954H245.632V39H244.141V34.128H237.19V39H235.699V27.954ZM254.427 39.105C253.363 39.105 252.404 38.867 251.55 38.391C250.696 37.901 250.024 37.229 249.534 36.375C249.044 35.521 248.799 34.555 248.799 33.477C248.799 32.399 249.044 31.433 249.534 30.579C250.024 29.725 250.696 29.06 251.55 28.584C252.404 28.108 253.363 27.87 254.427 27.87C255.491 27.87 256.45 28.108 257.304 28.584C258.158 29.06 258.823 29.725 259.299 30.579C259.789 31.433 260.034 32.399 260.034 33.477C260.034 34.555 259.789 35.521 259.299 36.375C258.823 37.229 258.158 37.901 257.304 38.391C256.45 38.867 255.491 39.105 254.427 39.105ZM254.427 37.782C255.211 37.782 255.911 37.607 256.527 37.257C257.157 36.893 257.647 36.382 257.997 35.724C258.347 35.066 258.522 34.317 258.522 33.477C258.522 32.637 258.347 31.888 257.997 31.23C257.647 30.572 257.157 30.068 256.527 29.718C255.911 29.354 255.211 29.172 254.427 29.172C253.643 29.172 252.936 29.354 252.306 29.718C251.69 30.068 251.2 30.572 250.836 31.23C250.486 31.888 250.311 32.637 250.311 33.477C250.311 34.317 250.486 35.066 250.836 35.724C251.2 36.382 251.69 36.893 252.306 37.257C252.936 37.607 253.643 37.782 254.427 37.782ZM270.256 33.288C271.754 33.638 272.503 34.541 272.503 35.997C272.503 36.963 272.146 37.705 271.432 38.223C270.718 38.741 269.654 39 268.24 39H263.221V27.954H268.093C269.353 27.954 270.34 28.199 271.054 28.689C271.768 29.179 272.125 29.879 272.125 30.789C272.125 31.391 271.957 31.909 271.621 32.343C271.299 32.763 270.844 33.078 270.256 33.288ZM264.67 32.868H267.988C268.842 32.868 269.493 32.707 269.941 32.385C270.403 32.063 270.634 31.594 270.634 30.978C270.634 30.362 270.403 29.9 269.941 29.592C269.493 29.284 268.842 29.13 267.988 29.13H264.67V32.868ZM268.177 37.824C269.129 37.824 269.843 37.67 270.319 37.362C270.795 37.054 271.033 36.571 271.033 35.913C271.033 35.255 270.816 34.772 270.382 34.464C269.948 34.142 269.262 33.981 268.324 33.981H264.67V37.824H268.177ZM285.027 27.954V39H283.536V29.277H278.244L278.097 32.007C277.985 34.303 277.719 36.067 277.299 37.299C276.879 38.531 276.13 39.147 275.052 39.147C274.758 39.147 274.401 39.091 273.981 38.979L274.086 37.698C274.338 37.754 274.513 37.782 274.611 37.782C275.185 37.782 275.619 37.516 275.913 36.984C276.207 36.452 276.403 35.794 276.501 35.01C276.599 34.226 276.683 33.19 276.753 31.902L276.942 27.954H285.027ZM298.926 33.939H289.686C289.77 35.087 290.211 36.018 291.009 36.732C291.807 37.432 292.815 37.782 294.033 37.782C294.719 37.782 295.349 37.663 295.923 37.425C296.497 37.173 296.994 36.809 297.414 36.333L298.254 37.299C297.764 37.887 297.148 38.335 296.406 38.643C295.678 38.951 294.873 39.105 293.991 39.105C292.857 39.105 291.849 38.867 290.967 38.391C290.099 37.901 289.42 37.229 288.93 36.375C288.44 35.521 288.195 34.555 288.195 33.477C288.195 32.399 288.426 31.433 288.888 30.579C289.364 29.725 290.008 29.06 290.82 28.584C291.646 28.108 292.57 27.87 293.592 27.87C294.614 27.87 295.531 28.108 296.343 28.584C297.155 29.06 297.792 29.725 298.254 30.579C298.716 31.419 298.947 32.385 298.947 33.477L298.926 33.939ZM293.592 29.151C292.528 29.151 291.632 29.494 290.904 30.18C290.19 30.852 289.784 31.734 289.686 32.826H297.519C297.421 31.734 297.008 30.852 296.28 30.18C295.566 29.494 294.67 29.151 293.592 29.151ZM302.247 27.954H303.738V32.847H310.689V27.954H312.18V39H310.689V34.128H303.738V39H302.247V27.954ZM316.418 27.954H317.909V36.732L325.28 27.954H326.603V39H325.112V30.222L317.762 39H316.418V27.954ZM339.36 27.954V39H337.995V35.346H334.53H334.11L331.548 39H329.931L332.682 35.136C331.828 34.898 331.17 34.492 330.708 33.918C330.246 33.344 330.015 32.616 330.015 31.734C330.015 30.502 330.435 29.564 331.275 28.92C332.115 28.276 333.263 27.954 334.719 27.954H339.36ZM331.527 31.776C331.527 33.414 332.57 34.233 334.656 34.233H337.995V29.277H334.761C332.605 29.277 331.527 30.11 331.527 31.776Z" fill="white"/>
</svg>
