<svg width="121" height="118" viewBox="0 0 121 118" fill="none" xmlns="http://www.w3.org/2000/svg">
<path d="M60.0482 48.6643L48.8882 73.8643H46.2602L35.1002 48.6643H37.9802L47.6282 70.5523L57.3482 48.6643H60.0482ZM71.5176 62.0203L66.3696 67.2403V73.8643H63.7056V48.6643H66.3696V63.8923L81.1656 48.6643H84.2256L73.3176 60.0763L84.9816 73.8643H81.8136L71.5176 62.0203Z" fill="white"/>
<path d="M120 59C120 91.009 93.3848 117 60.5 117C27.6152 117 1 91.009 1 59C1 26.991 27.6152 1 60.5 1C93.3848 1 120 26.991 120 59Z" stroke="white" stroke-width="2"/>
</svg>
